<svg xmlns="http://www.w3.org/2000/svg" width="1024" height="1024" fill="none"><rect width="1024" height="1024" fill="#278EED" rx="500"/><path fill="#202426" d="M790.186 458.619h-109.55q-1.323 0-1.324-1.654l.331-232.835q0-1.324 1.324-1.324h108.888q1.324 0 1.324 1.655v37.896q0 1.323-1.324 1.323h-69.503v52.955h69.503q1.324 0 1.324 1.324l.331 38.392q0 1.324-1.324 1.324h-69.834v59.243h69.834q1.324 0 1.324 1.654v38.724q0 1.323-1.324 1.323m-208.346-.329-60.732.331q-1.655 0-1.655-1.655l.662-232.834q0-1.324 1.324-1.324l63.38-.331q18.866-.497 34.089 8.605 15.39 9.102 24.492 24.657 9.267 15.39 9.267 34.089v97.304q0 19.527-9.433 35.745-9.597 16.052-25.484 25.65-15.887 9.432-35.91 9.763m2.979-195.27-23.664.331-.331 153.568h21.016q12.577 0 21.182-8.77t8.605-21.017v-97.635q0-10.756-7.943-18.699-7.943-8.108-18.865-7.778M427.237 461.929q-18.039 0-33.263-9.267-15.059-9.267-24.326-24.657-9.1-15.555-9.101-34.09l.331-107.398q0-18.866 9.101-33.924 8.937-15.225 24.161-24.326Q409.365 219 427.237 219q18.534 0 33.262 9.102 14.894 9.1 23.829 24.491 9.102 15.225 9.102 33.924l.331 107.398q0 18.535-8.936 33.925-9.102 15.555-24.161 24.822t-33.427 9.267m0-40.874q10.259 0 17.872-8.274 7.612-8.44 7.612-18.866l-.331-107.398q0-11.253-7.116-19.03-7.116-7.779-18.037-7.778-10.426 0-17.873 7.612-7.446 7.613-7.446 19.196v107.398q0 11.088 7.446 19.197 7.447 7.943 17.873 7.943m-153.878 40.874q-18.37 0-33.593-9.267-15.06-9.267-23.995-24.822-8.77-15.721-8.771-34.917l.331-105.744q0-18.865 8.605-34.09 8.605-15.389 23.664-24.656Q254.825 219 273.359 219q18.864 0 33.593 9.102 14.894 9.1 23.664 24.657 8.936 15.389 8.936 34.42v15.555q0 1.324-1.324 1.324h-38.061q-1.324 0-1.324-1.324v-15.555q0-11.253-7.281-19.362t-18.203-8.108q-12.081 0-18.534 8.274-6.454 8.274-6.454 19.196v105.744q0 12.411 7.281 20.354 7.28 7.778 17.707 7.778 10.922 0 18.203-8.605 7.281-8.77 7.281-19.527v-15.721q0-1.324 1.324-1.324h38.392q1.324 0 1.324 1.324v15.721q0 19.03-8.936 34.751-9.102 15.555-23.995 24.988-14.894 9.267-33.593 9.267m541.319 339.166H705.129q-1.324 0-1.324-1.654l.331-232.835q0-1.323 1.324-1.324h108.887q1.324 0 1.324 1.655v37.896q0 1.323-1.324 1.324h-69.503v52.954h69.503q1.324 0 1.324 1.324l.331 38.392q0 1.324-1.324 1.324h-69.834v59.243h69.834q1.324 0 1.324 1.655v38.723q0 1.323-1.324 1.323m-208.346-.329-60.732.331q-1.655 0-1.655-1.655l.662-232.834q0-1.324 1.324-1.324l63.38-.331q18.865-.497 34.09 8.605 15.39 9.102 24.491 24.657 9.267 15.39 9.267 34.089v97.304q0 19.527-9.432 35.745-9.598 16.051-25.485 25.65-15.887 9.432-35.91 9.763m2.979-195.27-23.664.331-.331 153.568h21.016q12.577 0 21.182-8.77t8.605-21.017v-97.634q0-10.757-7.943-18.7-7.943-8.108-18.865-7.778M451.729 804.405q-18.038 0-33.262-9.267-15.06-9.267-24.326-24.657-9.102-15.555-9.102-34.089l.331-107.399q0-18.865 9.102-33.924 8.935-15.225 24.16-24.326 15.225-9.267 33.097-9.267 18.534 0 33.262 9.102 14.893 9.1 23.829 24.491 9.102 15.225 9.102 33.924l.331 107.399q0 18.534-8.936 33.924-9.101 15.555-24.161 24.822-15.059 9.267-33.427 9.267m0-40.874q10.26 0 17.872-8.274 7.612-8.44 7.612-18.865l-.331-107.399q0-11.253-7.116-19.03-7.115-7.779-18.037-7.778-10.426 0-17.872 7.612-7.447 7.613-7.447 19.196v107.399q0 11.087 7.447 19.196 7.446 7.943 17.872 7.943m-205.013 37.564h-38.392q-1.324 0-1.324-1.654l.662-232.835q0-1.323 1.324-1.324h41.371q1.323 0 2.316 1.324l30.946 73.239 30.779-73.239q.993-1.323 2.483-1.324h41.536q1.49 0 1.489 1.324l.662 232.835q0 1.654-1.324 1.654h-38.392q-1.324 0-1.324-1.654l-.331-132.313-35.578 75.648-35.248-75.648-.331 132.313q0 1.654-1.324 1.654"/></svg>