<svg xmlns="http://www.w3.org/2000/svg" width="1365.333" height="1365.333" version="1.0" viewBox="0 0 1024 1024"><path d="M473.9.4c-.2.2-5.1.6-10.9 1s-11.8.8-13.5 1.1c-1.6.2-5.5.6-8.5 1-15.7 1.8-27 3.7-43.5 7.1-63.9 13.3-126.6 40.1-180.7 77.3-9 6.2-32 23.5-35.2 26.5-.6.6-4 3.6-7.6 6.6-12.7 10.8-31.8 29.4-45.2 44.1C87.6 210.5 53 267.3 31.5 325c-9 24.2-18.4 57.5-22.1 78-.3 1.4-.9 5-1.4 8-.6 3-1.2 6.4-1.4 7.6s-.7 4.5-1.1 7.4-.9 6.2-1.1 7.4-.6 4.8-.9 8.1-.8 6.9-1 8C-.2 462.8-.3 557.7 2.4 574c.3 1.4.7 5 1 8 .4 4.6 1.2 10.2 4.1 28.5 4.7 30.3 17.8 74.8 32.1 109 4.8 11.6 23.6 48.6 29.9 59 10.7 17.8 31.6 48.2 37.9 55.2.6.6 2.5 2.9 4.1 4.9 14 17.6 35.9 40.7 53.4 56.4 4.6 4.1 8.9 8 9.5 8.5 12.3 11.6 54.5 41.8 71.5 51.3 2.5 1.4 6.2 3.4 8.1 4.5 16.9 9.8 40.5 21.1 62.5 29.9 20.8 8.4 63.1 21 80.5 24.2 1.4.2 8.6 1.6 16 2.9 7.4 1.4 15.8 2.8 18.5 3.1 2.8.3 6.9.8 9.3 1.1 2.3.3 6 .7 8.2 1 24.1 2.8 105.1 2.8 125.5 0 1.7-.2 5.3-.7 8-.9 64.7-6.7 142.2-33.1 199-67.9 13.2-8.1 34.8-22.6 43-28.9 25.4-19.5 50.3-42.3 69.7-63.8 10.1-11.2 13.5-15.1 18.8-22 1.9-2.5 3.7-4.7 4.1-5 3.2-2.6 30.4-42.1 37.1-54 1.4-2.5 4.2-7.4 6.3-11 5.4-9.4 15.7-30 20.5-41 2.3-5.2 4.8-10.9 5.5-12.5 2.4-5.5 10.2-26.8 13.9-38.1 3.3-10.5 11.8-42.3 13-48.9.2-1.7.7-4.1 1-5.5 1.2-5.2 2.9-15.4 5-31 3.6-26.5 4.1-35.7 4.1-78.5 0-33.7-.6-54.7-1.9-62.5-.3-1.4-.7-5.2-1-8.5s-.8-6.9-1-8-.7-4.7-1.1-8c-.3-3.2-.8-6.2-1-6.5-.1-.3-.6-2.5-.9-5-.7-4.8-.9-6.1-2.5-13-.5-2.5-1.2-5.6-1.4-7-.3-1.4-1.5-6.6-2.7-11.5-1.2-5-2.3-9.7-2.5-10.5-1.9-9.1-15-48.8-16.6-50.4-.5-.6-.9-1.6-.9-2.3 0-2.5-9.2-23.5-18.4-41.8-9.8-19.7-22.7-42-34.4-59-6.6-9.8-24.1-33.1-27.4-36.7-.7-.7-3.8-4.3-6.8-7.8-10.6-12.6-30-32.4-44-45-4.5-4.1-8.8-8-9.4-8.5-.6-.6-3.6-3-6.6-5.5s-5.7-4.7-6-5.1c-.3-.3-5.4-4.2-11.5-8.7-6-4.5-11.4-8.5-12-9-2.7-2.1-25.6-17.2-26.3-17.2-.4 0-2.5-1.4-4.6-3-2.2-1.7-4.3-3-4.8-3-.4 0-3.7-1.8-7.3-4-17.1-10.5-54.4-27.5-80.4-36.7-10.2-3.6-36-11.5-42-12.8-15.8-3.6-29.2-6.5-31.6-6.9-8.2-1.5-20.5-3.5-25-4.1C579.2 3 569.2 1.9 563 1.3 557.6.8 474.4 0 473.9.4"/></svg>