<svg width="1024" height="1024" viewBox="0 0 1024 1024" fill="none" xmlns="http://www.w3.org/2000/svg">
<rect width="1024" height="1024" rx="500" fill="#278EED"/>
<path d="M790.186 458.619H680.636C679.754 458.619 679.312 458.068 679.312 456.965L679.643 224.13C679.643 223.247 680.085 222.806 680.967 222.806H789.855C790.738 222.806 791.179 223.358 791.179 224.461V262.357C791.179 263.239 790.738 263.68 789.855 263.68H720.352V316.635H789.855C790.738 316.635 791.179 317.076 791.179 317.959L791.51 356.351C791.51 357.233 791.069 357.675 790.186 357.675H720.352V416.918H790.186C791.069 416.918 791.51 417.469 791.51 418.572V457.296C791.51 458.178 791.069 458.619 790.186 458.619Z" fill="#202426"/>
<path d="M581.84 458.29L521.108 458.621C520.005 458.621 519.453 458.069 519.453 456.966L520.115 224.132C520.115 223.249 520.556 222.808 521.439 222.808L584.819 222.477C597.396 222.146 608.759 225.014 618.908 231.082C629.168 237.15 637.332 245.369 643.4 255.739C649.578 265.999 652.667 277.362 652.667 289.828V387.132C652.667 400.15 649.523 412.065 643.234 422.877C636.836 433.578 628.341 442.128 617.75 448.527C607.159 454.815 595.189 458.069 581.84 458.29ZM584.819 263.02L561.155 263.351L560.824 416.919H581.84C590.225 416.919 597.285 413.996 603.022 408.149C608.759 402.302 611.627 395.296 611.627 387.132V289.497C611.627 282.327 608.979 276.093 603.684 270.798C598.389 265.392 592.1 262.8 584.819 263.02Z" fill="#202426"/>
<path d="M427.237 461.929C415.211 461.929 404.124 458.84 393.974 452.662C383.935 446.484 375.826 438.265 369.648 428.005C363.581 417.635 360.547 406.272 360.547 393.915L360.878 286.517C360.878 273.94 363.912 262.632 369.979 252.593C375.937 242.443 383.99 234.335 394.14 228.267C404.29 222.089 415.322 219 427.237 219C439.593 219 450.68 222.034 460.499 228.102C470.428 234.169 478.371 242.333 484.328 252.593C490.396 262.743 493.43 274.051 493.43 286.517L493.761 393.915C493.761 406.272 490.782 417.58 484.825 427.84C478.757 438.21 470.703 446.484 460.664 452.662C450.625 458.84 439.482 461.929 427.237 461.929ZM427.237 421.055C434.076 421.055 440.034 418.297 445.109 412.781C450.183 407.154 452.721 400.866 452.721 393.915L452.39 286.517C452.39 279.015 450.018 272.672 445.274 267.487C440.53 262.301 434.518 259.709 427.237 259.709C420.286 259.709 414.329 262.246 409.364 267.321C404.4 272.396 401.918 278.795 401.918 286.517V393.915C401.918 401.307 404.4 407.706 409.364 413.112C414.329 418.407 420.286 421.055 427.237 421.055Z" fill="#202426"/>
<path d="M273.359 461.929C261.113 461.929 249.915 458.84 239.766 452.662C229.726 446.484 221.728 438.21 215.771 427.84C209.924 417.359 207 405.72 207 392.923L207.331 287.179C207.331 274.602 210.199 263.239 215.936 253.089C221.673 242.83 229.561 234.611 239.6 228.433C249.75 222.144 261.003 219 273.359 219C285.935 219 297.133 222.034 306.952 228.102C316.881 234.169 324.769 242.388 330.616 252.759C336.573 263.018 339.552 274.492 339.552 287.179V302.734C339.552 303.617 339.111 304.058 338.228 304.058H300.167C299.284 304.058 298.843 303.617 298.843 302.734V287.179C298.843 279.677 296.416 273.223 291.562 267.817C286.708 262.412 280.64 259.709 273.359 259.709C265.305 259.709 259.127 262.467 254.825 267.983C250.522 273.499 248.371 279.898 248.371 287.179V392.923C248.371 401.197 250.798 407.982 255.652 413.277C260.506 418.462 266.408 421.055 273.359 421.055C280.64 421.055 286.708 418.186 291.562 412.45C296.416 406.603 298.843 400.094 298.843 392.923V377.202C298.843 376.319 299.284 375.878 300.167 375.878H338.559C339.442 375.878 339.883 376.319 339.883 377.202V392.923C339.883 405.61 336.904 417.193 330.947 427.674C324.879 438.044 316.881 446.374 306.952 452.662C297.023 458.84 285.825 461.929 273.359 461.929Z" fill="#202426"/>
<path d="M814.678 801.095H705.129C704.246 801.095 703.805 800.544 703.805 799.441L704.136 566.606C704.136 565.724 704.577 565.282 705.46 565.282H814.347C815.23 565.282 815.671 565.834 815.671 566.937V604.833C815.671 605.715 815.23 606.157 814.347 606.157H744.844V659.111H814.347C815.23 659.111 815.671 659.552 815.671 660.435L816.002 698.827C816.002 699.71 815.561 700.151 814.678 700.151H744.844V759.394H814.678C815.561 759.394 816.002 759.945 816.002 761.049V799.772C816.002 800.654 815.561 801.095 814.678 801.095Z" fill="#202426"/>
<path d="M606.332 800.766L545.6 801.097C544.497 801.097 543.945 800.546 543.945 799.442L544.607 566.608C544.607 565.725 545.049 565.284 545.931 565.284L609.311 564.953C621.888 564.622 633.251 567.49 643.401 573.558C653.661 579.626 661.824 587.845 667.892 598.215C674.07 608.475 677.159 619.838 677.159 632.304V729.608C677.159 742.626 674.015 754.541 667.727 765.353C661.328 776.054 652.833 784.604 642.242 791.003C631.651 797.291 619.681 800.546 606.332 800.766ZM609.311 605.496L585.647 605.827L585.316 759.395H606.332C614.717 759.395 621.777 756.472 627.514 750.625C633.251 744.778 636.119 737.772 636.119 729.608V631.974C636.119 624.803 633.472 618.569 628.176 613.274C622.881 607.868 616.592 605.276 609.311 605.496Z" fill="#202426"/>
<path d="M451.729 804.405C439.704 804.405 428.616 801.316 418.467 795.138C408.427 788.96 400.319 780.741 394.141 770.481C388.073 760.111 385.039 748.748 385.039 736.392L385.37 628.993C385.37 616.416 388.404 605.108 394.472 595.069C400.429 584.919 408.482 576.811 418.632 570.743C428.782 564.565 439.814 561.476 451.729 561.476C464.085 561.476 475.172 564.51 484.991 570.578C494.92 576.645 502.863 584.809 508.82 595.069C514.888 605.219 517.922 616.527 517.922 628.993L518.253 736.392C518.253 748.748 515.274 760.056 509.317 770.316C503.249 780.686 495.196 788.96 485.156 795.138C475.117 801.316 463.974 804.405 451.729 804.405ZM451.729 763.531C458.569 763.531 464.526 760.773 469.601 755.257C474.676 749.63 477.213 743.342 477.213 736.392L476.882 628.993C476.882 621.491 474.51 615.148 469.766 609.963C465.023 604.777 459.01 602.185 451.729 602.185C444.778 602.185 438.821 604.722 433.857 609.797C428.892 614.872 426.41 621.271 426.41 628.993V736.392C426.41 743.783 428.892 750.182 433.857 755.588C438.821 760.883 444.778 763.531 451.729 763.531Z" fill="#202426"/>
<path d="M246.716 801.095H208.324C207.441 801.095 207 800.544 207 799.441L207.662 566.606C207.662 565.724 208.103 565.282 208.986 565.282H250.357C251.239 565.282 252.011 565.724 252.673 566.606L283.619 639.845L314.398 566.606C315.06 565.724 315.888 565.282 316.881 565.282H358.417C359.41 565.282 359.906 565.724 359.906 566.606L360.568 799.441C360.568 800.544 360.127 801.095 359.244 801.095H320.852C319.97 801.095 319.528 800.544 319.528 799.441L319.197 667.128L283.619 742.776L248.371 667.128L248.04 799.441C248.04 800.544 247.598 801.095 246.716 801.095Z" fill="#202426"/>
</svg>
