<?xml version="1.0" standalone="no"?>
<!DOCTYPE svg PUBLIC "-//W3C//DTD SVG 20010904//EN"
 "http://www.w3.org/TR/2001/REC-SVG-20010904/DTD/svg10.dtd">
<svg version="1.0" xmlns="http://www.w3.org/2000/svg"
 width="1024.000000pt" height="1024.000000pt" viewBox="0 0 1024.000000 1024.000000"
 preserveAspectRatio="xMidYMid meet">
<metadata>
Created by potrace 1.14, written by Peter Selinger 2001-2017
</metadata>
<g transform="translate(0.000000,1024.000000) scale(0.100000,-0.100000)"
fill="#000000" stroke="none">
<path d="M4739 10236 c-2 -2 -51 -6 -109 -10 -58 -4 -118 -8 -135 -11 -16 -2
-55 -6 -85 -10 -157 -18 -270 -37 -435 -71 -639 -133 -1266 -401 -1807 -773
-90 -62 -320 -235 -352 -265 -6 -6 -40 -36 -76 -66 -127 -108 -318 -294 -452
-441 -412 -454 -758 -1022 -973 -1599 -90 -242 -184 -575 -221 -780 -3 -14 -9
-50 -14 -80 -6 -30 -12 -64 -14 -76 -2 -12 -7 -45 -11 -74 -4 -29 -9 -62 -11
-74 -2 -12 -6 -48 -9 -81 -3 -33 -8 -69 -10 -80 -27 -133 -28 -1082 -1 -1245
3 -14 7 -50 10 -80 4 -46 12 -102 41 -285 47 -303 178 -748 321 -1090 48 -116
236 -486 299 -590 107 -178 316 -482 379 -552 6 -6 25 -29 41 -49 140 -176
359 -407 534 -564 46 -41 89 -80 95 -85 123 -116 545 -418 715 -513 25 -14 62
-34 81 -45 169 -98 405 -211 625 -299 208 -84 631 -210 805 -242 14 -2 86 -16
160 -29 74 -14 158 -28 185 -31 28 -3 69 -8 93 -11 23 -3 60 -7 82 -10 241
-28 1051 -28 1255 0 17 2 53 7 80 9 647 67 1422 331 1990 679 132 81 348 226
430 289 254 195 503 423 697 638 101 112 135 151 188 220 19 25 37 47 41 50
32 26 304 421 371 540 14 25 42 74 63 110 54 94 157 300 205 410 23 52 48 109
55 125 24 55 102 268 139 381 33 105 118 423 130 489 2 17 7 41 10 55 12 52
29 154 50 310 36 265 41 357 41 785 0 337 -6 547 -19 625 -3 14 -7 52 -10 85
-3 33 -8 69 -10 80 -2 11 -7 47 -11 80 -3 32 -8 62 -10 65 -1 3 -6 25 -9 50
-7 48 -9 61 -25 130 -5 25 -12 56 -14 70 -3 14 -15 66 -27 115 -12 50 -23 97
-25 105 -19 91 -150 488 -166 504 -5 6 -9 16 -9 23 0 25 -92 235 -184 418 -98
197 -227 420 -344 590 -66 98 -241 331 -274 367 -7 7 -38 43 -68 78 -106 126
-300 324 -440 450 -45 41 -88 80 -94 85 -6 6 -36 30 -66 55 -30 25 -57 47 -60
51 -3 3 -54 42 -115 87 -60 45 -114 85 -120 90 -27 21 -256 172 -263 172 -4 0
-25 14 -46 30 -22 17 -43 30 -48 30 -4 0 -37 18 -73 40 -171 105 -544 275
-804 367 -102 36 -360 115 -420 128 -158 36 -292 65 -316 69 -82 15 -205 35
-250 41 -123 15 -223 26 -285 32 -54 5 -886 13 -891 9z"/>
</g>
</svg>
